<svg xmlns="http://www.w3.org/2000/svg" width="80" height="80" viewBox="0 0 80 80">
    <defs>
        <pattern id="medical-grid" width="80" height="80" patternUnits="userSpaceOnUse">
            <!-- Plus signs -->
            <g fill="#667eea" fill-opacity="0.05">
                <path d="M20 18h-4v-4h-4v4H8v4h4v4h4v-4h4z"/>
                <path d="M60 18h-4v-4h-4v4h-4v4h4v4h4v-4h4z"/>
                <path d="M20 58h-4v-4h-4v4H8v4h4v4h4v-4h4z"/>
                <path d="M60 58h-4v-4h-4v4h-4v4h4v4h4v-4h4z"/>
            </g>
            <!-- Hearts -->
            <g fill="#dc3545" fill-opacity="0.03">
                <path d="M40 65c-4-4-8-7-8-11 0-3 2-5 5-5 2 0 3 1 3 1s1-1 3-1c3 0 5 2 5 5 0 4-4 7-8 11z"/>
                <path d="M40 25c-4-4-8-7-8-11 0-3 2-5 5-5 2 0 3 1 3 1s1-1 3-1c3 0 5 2 5 5 0 4-4 7-8 11z"/>
            </g>
        </pattern>
    </defs>
    <rect width="80" height="80" fill="url(#medical-grid)"/>
</svg>